<svg id="wizme" xmlns="http://www.w3.org/2000/svg" viewBox="0 0 450 80"><defs><style>.cls-1{fill:#002b58;}.cls-2{fill:#009ce1;}</style></defs><title>-e-wizme-x4</title><g id="wizme-2" data-name="wizme"><g id="wizme_type" data-name="wizme type"><path class="cls-1" d="M449.1,45.19H412.72c1,7.39,6.81,12.19,14.49,12.19,5.47,0,10.47-2.59,12.87-6.91.86.29,2.11.86,3.84,1.53l3.64,1.35c-3.74,7.68-11.71,11.9-20.64,11.9a22.58,22.58,0,0,1-16.41-6.53c-4.32-4.32-6.53-10-6.53-17s2.21-12.57,6.53-16.8a22.5,22.5,0,0,1,16.41-6.43c6.44,0,11.81,2.11,15.94,6.43s6.33,9.8,6.33,16.8A33.27,33.27,0,0,1,449.1,45.19Zm-8.55-6.82c-1.05-7.39-6.33-12-13.63-12-7.58,0-13.15,4.61-14.2,12Z"/><path class="cls-1" d="M362,40.1V64.29h-8.74V38.85c0-7.29-3.84-11.8-9.69-11.8-6.92,0-12.48,4.32-12.48,13.05V64.29h-8.74V19.46h8.74v6.72c2.2-4.51,7.87-7.1,12.38-7.49a20.62,20.62,0,0,1,4.9.29c5.66.87,9.6,3.84,11.71,8.74q4.74-9.22,15.55-9.22c11.13,0,17.28,7.2,17.28,19.87V64.29H384.2V39c0-7.39-3.84-11.9-10.27-11.9C366.63,27,362,32.42,362,40.1Z"/><path class="cls-1" d="M310.38,19.46v7.2L283.21,55.94h27.17v8.35H270.93v-7.2l26.68-29.28H272.46V19.46Z"/><path class="cls-1" d="M251,64.29V19.46h8.64V64.29Z"/><rect id="rectangle" class="cls-1" x="250.95" width="8.64" height="8.64"/><path class="cls-1" d="M225,64.29h-7.2l-12.2-32.92-11.8,32.92h-7.11L169.65,19.46H179l11.23,31.39,11.23-31.39h8.45L221.1,50.85l11.23-31.39h9.31Z"/></g><path id="wizme_symbol" data-name="wizme symbol" class="cls-2" d="M141.42,40.29,101.82.69,70.71,31.81,39.6.69,0,40.29l39.6,39.6L70.71,48.78l31.11,31.11Zm-17,0L101.82,62.92,82.2,43.29h21.62v-6H82.2l19.62-19.63ZM17,40.29,39.6,17.66,59.23,37.29H37.82v6H59.23L39.6,62.92Z"/></g></svg>